<svg width="140" height="40" viewBox="0 0 140 40" fill="none" xmlns="http://www.w3.org/2000/svg">
<path d="M54.5859 12.7812V27H51.9004V12.7812H54.5859ZM63.1211 12.7812L57.418 19.7148L54.1562 23.2012L53.6777 20.5938L55.9434 17.6543L59.8301 12.7812H63.1211ZM60.1328 27L55.709 20.3398L57.6328 18.6016L63.3262 27H60.1328ZM68.873 27.1953C68.0723 27.1953 67.3529 27.0651 66.7148 26.8047C66.0768 26.5443 65.5332 26.1829 65.084 25.7207C64.6413 25.252 64.2995 24.7083 64.0586 24.0898C63.8242 23.4648 63.707 22.7943 63.707 22.0781V21.6875C63.707 20.8737 63.8242 20.1348 64.0586 19.4707C64.293 18.8001 64.625 18.224 65.0547 17.7422C65.4844 17.2604 65.9987 16.8893 66.5977 16.6289C67.1966 16.3685 67.8574 16.2383 68.5801 16.2383C69.3288 16.2383 69.9896 16.3652 70.5625 16.6191C71.1354 16.8665 71.6139 17.2181 71.998 17.6738C72.3822 18.1296 72.6719 18.6764 72.8672 19.3145C73.0625 19.946 73.1602 20.6458 73.1602 21.4141V22.498H64.8789V20.7207H70.6211V20.5254C70.6081 20.1152 70.5299 19.7409 70.3867 19.4023C70.2435 19.0573 70.0221 18.7839 69.7227 18.582C69.4232 18.3737 69.0358 18.2695 68.5605 18.2695C68.1764 18.2695 67.8411 18.3542 67.5547 18.5234C67.2747 18.6862 67.0404 18.9206 66.8516 19.2266C66.6693 19.526 66.5326 19.8841 66.4414 20.3008C66.3503 20.7174 66.3047 21.1797 66.3047 21.6875V22.0781C66.3047 22.5208 66.3633 22.931 66.4805 23.3086C66.6042 23.6862 66.7832 24.015 67.0176 24.2949C67.2585 24.5684 67.5449 24.7832 67.877 24.9395C68.2155 25.0892 68.5996 25.1641 69.0293 25.1641C69.5697 25.1641 70.0579 25.0599 70.4941 24.8516C70.9368 24.6367 71.321 24.321 71.6465 23.9043L72.9453 25.252C72.724 25.5775 72.4245 25.89 72.0469 26.1895C71.6758 26.4889 71.2266 26.7331 70.6992 26.9219C70.1719 27.1042 69.5632 27.1953 68.873 27.1953ZM77.8477 25.8281L80.6797 16.4336H83.4434L79.2051 28.6016C79.1074 28.862 78.9805 29.1452 78.8242 29.4512C78.6745 29.7572 78.4727 30.0469 78.2188 30.3203C77.9648 30.6003 77.6458 30.8281 77.2617 31.0039C76.8841 31.1797 76.4251 31.2676 75.8848 31.2676C75.6504 31.2676 75.4421 31.2513 75.2598 31.2188C75.0775 31.1862 74.8854 31.1439 74.6836 31.0918V29.1582C74.7487 29.1647 74.8236 29.168 74.9082 29.168C74.9993 29.1745 75.0775 29.1777 75.1426 29.1777C75.5202 29.1777 75.8327 29.1322 76.0801 29.041C76.3275 28.9564 76.526 28.8164 76.6758 28.6211C76.832 28.4323 76.9622 28.1849 77.0664 27.8789L77.8477 25.8281ZM76.4512 16.4336L78.8438 24.2168L79.2637 26.9414L77.4863 27.2637L73.668 16.4336H76.4512ZM90.5039 24.1094C90.5039 23.888 90.4453 23.6895 90.3281 23.5137C90.2109 23.3379 89.9896 23.1784 89.6641 23.0352C89.3451 22.8854 88.8763 22.7454 88.2578 22.6152C87.7109 22.498 87.2064 22.3516 86.7441 22.1758C86.2819 22 85.8848 21.7884 85.5527 21.541C85.2207 21.2871 84.9603 20.9909 84.7715 20.6523C84.5892 20.3073 84.498 19.9102 84.498 19.4609C84.498 19.0247 84.5924 18.6146 84.7812 18.2305C84.9701 17.8398 85.2435 17.498 85.6016 17.2051C85.9596 16.9056 86.3958 16.6712 86.9102 16.502C87.4245 16.3262 88.0039 16.2383 88.6484 16.2383C89.5469 16.2383 90.3184 16.3848 90.9629 16.6777C91.6139 16.9707 92.112 17.3743 92.457 17.8887C92.8021 18.3965 92.9746 18.9694 92.9746 19.6074H90.3965C90.3965 19.3275 90.3314 19.0736 90.2012 18.8457C90.0775 18.6178 89.8854 18.4355 89.625 18.2988C89.3646 18.1556 89.0358 18.084 88.6387 18.084C88.2806 18.084 87.9779 18.1426 87.7305 18.2598C87.4896 18.377 87.3073 18.5299 87.1836 18.7188C87.0599 18.9076 86.998 19.1159 86.998 19.3438C86.998 19.513 87.0306 19.666 87.0957 19.8027C87.1673 19.9329 87.2812 20.0534 87.4375 20.1641C87.5938 20.2747 87.8053 20.3757 88.0723 20.4668C88.3457 20.5579 88.681 20.6458 89.0781 20.7305C89.8659 20.8867 90.5527 21.0951 91.1387 21.3555C91.7311 21.6094 92.1934 21.9479 92.5254 22.3711C92.8574 22.7943 93.0234 23.3346 93.0234 23.9922C93.0234 24.4609 92.9225 24.8906 92.7207 25.2812C92.5189 25.6654 92.2259 26.0007 91.8418 26.2871C91.4577 26.5736 90.9987 26.7982 90.4648 26.9609C89.931 27.1172 89.3288 27.1953 88.6582 27.1953C87.6882 27.1953 86.8678 27.0228 86.1973 26.6777C85.5267 26.3262 85.0189 25.8835 84.6738 25.3496C84.3288 24.8092 84.1562 24.2493 84.1562 23.6699H86.627C86.6465 24.0801 86.7572 24.4089 86.959 24.6562C87.1608 24.9036 87.4147 25.0827 87.7207 25.1934C88.0332 25.2975 88.362 25.3496 88.707 25.3496C89.0977 25.3496 89.4264 25.2975 89.6934 25.1934C89.9603 25.0827 90.1621 24.9362 90.2988 24.7539C90.4355 24.5651 90.5039 24.3503 90.5039 24.1094ZM100.631 20.6621H96.998L96.9785 18.7676H100.094C100.628 18.7676 101.074 18.6927 101.432 18.543C101.79 18.3932 102.06 18.1751 102.242 17.8887C102.431 17.6022 102.525 17.2539 102.525 16.8438C102.525 16.388 102.438 16.0169 102.262 15.7305C102.092 15.444 101.826 15.2357 101.461 15.1055C101.096 14.9688 100.634 14.9004 100.074 14.9004H97.8672V27H95.1816V12.7812H100.074C100.882 12.7812 101.601 12.8594 102.232 13.0156C102.87 13.1654 103.411 13.3997 103.854 13.7188C104.296 14.0378 104.632 14.4382 104.859 14.9199C105.094 15.4017 105.211 15.9746 105.211 16.6387C105.211 17.2246 105.074 17.765 104.801 18.2598C104.534 18.748 104.12 19.1452 103.561 19.4512C103.007 19.7572 102.304 19.9329 101.451 19.9785L100.631 20.6621ZM100.514 27H96.207L97.3301 24.8906H100.514C101.048 24.8906 101.487 24.8027 101.832 24.627C102.184 24.4512 102.444 24.2103 102.613 23.9043C102.789 23.5918 102.877 23.2337 102.877 22.8301C102.877 22.3874 102.799 22.0033 102.643 21.6777C102.493 21.3522 102.252 21.1016 101.92 20.9258C101.594 20.75 101.165 20.6621 100.631 20.6621H97.8379L97.8574 18.7676H101.412L102.027 19.5C102.848 19.5065 103.515 19.6693 104.029 19.9883C104.55 20.3073 104.934 20.7174 105.182 21.2188C105.429 21.7201 105.553 22.2604 105.553 22.8398C105.553 23.7513 105.354 24.5163 104.957 25.1348C104.566 25.7533 103.993 26.2188 103.238 26.5312C102.49 26.8438 101.581 27 100.514 27ZM113.502 24.7539V19.8809C113.502 19.5228 113.44 19.2135 113.316 18.9531C113.193 18.6927 113.004 18.4909 112.75 18.3477C112.496 18.2044 112.174 18.1328 111.783 18.1328C111.438 18.1328 111.135 18.1914 110.875 18.3086C110.621 18.4258 110.426 18.5918 110.289 18.8066C110.152 19.015 110.084 19.2559 110.084 19.5293H107.496C107.496 19.0931 107.6 18.6797 107.809 18.2891C108.017 17.8919 108.313 17.5404 108.697 17.2344C109.088 16.9219 109.553 16.6777 110.094 16.502C110.641 16.3262 111.253 16.2383 111.93 16.2383C112.73 16.2383 113.443 16.375 114.068 16.6484C114.7 16.9154 115.195 17.319 115.553 17.8594C115.917 18.3997 116.1 19.0801 116.1 19.9004V24.5098C116.1 25.0371 116.132 25.4896 116.197 25.8672C116.269 26.2383 116.373 26.5605 116.51 26.834V27H113.883C113.759 26.7331 113.665 26.3945 113.6 25.9844C113.535 25.5677 113.502 25.1576 113.502 24.7539ZM113.863 20.5645L113.883 22.0977H112.252C111.848 22.0977 111.493 22.14 111.188 22.2246C110.882 22.3027 110.631 22.4199 110.436 22.5762C110.24 22.7259 110.094 22.9082 109.996 23.123C109.898 23.3314 109.85 23.569 109.85 23.8359C109.85 24.0964 109.908 24.3307 110.025 24.5391C110.149 24.7474 110.325 24.9134 110.553 25.0371C110.787 25.1543 111.061 25.2129 111.373 25.2129C111.829 25.2129 112.226 25.1217 112.564 24.9395C112.903 24.7507 113.167 24.5228 113.355 24.2559C113.544 23.9889 113.645 23.735 113.658 23.4941L114.4 24.6074C114.309 24.8743 114.173 25.1576 113.99 25.457C113.808 25.7565 113.574 26.0365 113.287 26.2969C113.001 26.5573 112.656 26.7721 112.252 26.9414C111.848 27.1107 111.38 27.1953 110.846 27.1953C110.162 27.1953 109.55 27.0586 109.01 26.7852C108.469 26.5117 108.043 26.1374 107.73 25.6621C107.418 25.1868 107.262 24.6465 107.262 24.041C107.262 23.4811 107.366 22.9863 107.574 22.5566C107.783 22.127 108.092 21.7656 108.502 21.4727C108.912 21.1732 109.42 20.9486 110.025 20.7988C110.637 20.6426 111.337 20.5645 112.125 20.5645H113.863ZM120.953 18.6895V27H118.375V16.4336H120.797L120.953 18.6895ZM120.543 21.3359H119.781C119.788 20.5677 119.892 19.8711 120.094 19.2461C120.296 18.6211 120.579 18.084 120.943 17.6348C121.314 17.1855 121.754 16.8405 122.262 16.5996C122.77 16.3587 123.336 16.2383 123.961 16.2383C124.469 16.2383 124.928 16.3099 125.338 16.4531C125.748 16.5964 126.1 16.8242 126.393 17.1367C126.692 17.4492 126.92 17.8594 127.076 18.3672C127.239 18.8685 127.32 19.487 127.32 20.2227V27H124.723V20.2031C124.723 19.7214 124.651 19.3405 124.508 19.0605C124.371 18.7806 124.169 18.582 123.902 18.4648C123.642 18.3477 123.32 18.2891 122.936 18.2891C122.538 18.2891 122.19 18.3704 121.891 18.5332C121.598 18.6895 121.35 18.9076 121.148 19.1875C120.953 19.4674 120.803 19.7897 120.699 20.1543C120.595 20.5189 120.543 20.9128 120.543 21.3359ZM132.174 11.9902V27H129.596V11.9902H132.174ZM138.795 16.4336L134.195 21.5996L131.705 24.1289L130.885 22.127L132.809 19.7051L135.68 16.4336H138.795ZM136.158 27L132.887 22.0781L134.605 20.4082L139.146 27H136.158Z" fill="white"/>
<path d="M34.1422 5.85781C30.3647 2.08031 25.3422 0 20 0C14.6578 0 9.63531 2.08031 5.85781 5.85781C2.08031 9.63531 0 14.6578 0 20C0 25.3422 2.08039 30.3646 5.85781 34.1422C9.63523 37.9198 14.6578 40 20 40C25.3422 40 30.3647 37.9197 34.1422 34.1422C37.9197 30.3647 40 25.3422 40 20C40 14.6578 37.9196 9.63539 34.1422 5.85781Z" fill="#33CC95"/>
<g clip-path="url(#clip0_35212_417)">
<path d="M20.5714 8V33.1429" stroke="white" stroke-width="2" stroke-linecap="round" stroke-linejoin="round"/>
<path d="M26.2857 12.5714H17.7143C16.6534 12.5714 15.636 12.9929 14.8859 13.743C14.1357 14.4931 13.7143 15.5106 13.7143 16.5714C13.7143 17.6323 14.1357 18.6497 14.8859 19.3999C15.636 20.15 16.6534 20.5714 17.7143 20.5714H23.4286C24.4894 20.5714 25.5069 20.9929 26.257 21.743C27.0072 22.4932 27.4286 23.5106 27.4286 24.5714C27.4286 25.6323 27.0072 26.6497 26.257 27.3999C25.5069 28.15 24.4894 28.5714 23.4286 28.5714H13.7143" stroke="white" stroke-width="2" stroke-linecap="round" stroke-linejoin="round"/>
</g>
<defs>
<clipPath id="clip0_35212_417">
<rect width="27.4286" height="27.4286" fill="white" transform="translate(6.85715 6.85714)"/>
</clipPath>
</defs>
</svg>
